<?xml version="1.0" standalone="no"?>
<!DOCTYPE svg PUBLIC "-//W3C//DTD SVG 20010904//EN"
 "http://www.w3.org/TR/2001/REC-SVG-20010904/DTD/svg10.dtd">
<svg version="1.0" xmlns="http://www.w3.org/2000/svg"
 width="1028.000000pt" height="1028.000000pt" viewBox="0 0 1028.000000 1028.000000"
 preserveAspectRatio="xMidYMid meet">
<metadata>
Created by potrace 1.11, written by Peter Selinger 2001-2013
</metadata>
<g transform="translate(0.000000,1028.000000) scale(0.100000,-0.100000)"
fill="#000000" stroke="none">
<path d="M2838 10275 c-2 -2 -149 -6 -328 -9 -179 -3 -352 -8 -385 -10 -113
-8 -225 -21 -285 -32 -14 -2 -45 -7 -70 -9 -25 -3 -53 -8 -62 -11 -18 -5 -39
-10 -89 -18 -39 -6 -251 -64 -289 -79 -8 -3 -33 -11 -55 -18 -22 -6 -44 -15
-50 -18 -5 -4 -44 -20 -85 -36 -41 -15 -82 -34 -91 -41 -8 -8 -22 -14 -30 -14
-8 0 -25 -9 -39 -20 -14 -11 -33 -20 -42 -20 -10 0 -18 -4 -18 -8 0 -5 -12
-14 -27 -21 -98 -45 -285 -191 -409 -321 -97 -101 -146 -164 -254 -330 -23
-35 -108 -213 -126 -263 -23 -63 -64 -198 -69 -229 -3 -16 -8 -43 -11 -60 -28
-163 -24 -354 12 -508 79 -348 304 -674 630 -915 77 -57 167 -117 217 -145
166 -92 332 -168 460 -211 91 -31 218 -70 247 -75 14 -3 34 -8 45 -11 11 -4
25 -8 30 -9 6 -1 55 -11 110 -23 102 -21 152 -30 215 -36 19 -2 35 -4 35 -5 0
-3 171 -20 255 -25 185 -11 582 -17 1400 -21 498 -2 912 -4 920 -4 8 -1 56 -1
105 -1 229 1 400 -8 475 -25 14 -3 34 -7 45 -9 20 -4 37 -7 90 -21 48 -12 146
-60 194 -94 63 -46 88 -76 124 -150 29 -60 32 -73 31 -160 0 -124 -26 -178
-120 -260 -54 -47 -191 -99 -304 -115 -19 -2 -45 -7 -58 -9 -32 -7 -171 -17
-287 -22 -55 -2 -1034 -4 -2175 -4 -1487 -1 -2082 -4 -2100 -12 -14 -6 -30
-12 -37 -14 -24 -5 -85 -58 -101 -88 -15 -28 -17 -82 -19 -531 -1 -288 3 -516
8 -537 21 -84 106 -139 219 -144 36 -2 70 -4 76 -5 5 -1 12 0 17 1 18 4 138 2
143 -3 3 -3 16 -2 29 3 13 5 25 7 28 4 6 -6 1503 -17 2307 -17 542 0 1215 8
1370 15 20 1 41 -1 48 -6 7 -4 12 -4 12 1 0 4 48 9 108 10 137 2 368 12 407
17 17 2 62 7 100 10 39 4 77 9 85 11 8 3 35 7 60 9 25 3 66 10 92 15 27 6 51
11 55 10 5 -1 10 0 13 1 3 1 13 3 24 5 43 8 122 27 136 32 8 4 18 6 22 5 3 -1
30 6 60 15 29 9 60 17 68 18 8 1 22 5 30 8 8 3 67 24 130 47 143 51 186 70
328 142 97 49 276 160 336 208 348 278 550 588 632 970 26 120 26 414 0 525
-2 11 -9 40 -15 65 -33 145 -104 308 -196 451 -46 71 -51 78 -136 178 -231
273 -573 488 -994 626 -97 32 -299 86 -340 90 -11 1 -21 4 -22 5 -2 1 -11 3
-20 5 -10 1 -34 5 -53 8 -61 12 -94 17 -140 22 -25 3 -63 8 -85 11 -213 33
-739 45 -2110 49 -566 1 -1039 4 -1050 7 -11 3 -36 8 -55 12 -72 14 -125 29
-135 37 -5 5 -17 9 -26 9 -29 0 -133 66 -172 109 -68 76 -99 170 -92 281 13
190 165 326 420 376 22 4 47 9 55 11 67 16 2275 25 2590 10 80 -4 195 -9 255
-12 61 -2 144 -7 185 -10 41 -3 106 -7 143 -9 37 -2 71 -6 74 -10 3 -3 12 -1
20 5 7 6 13 7 13 3 0 -5 17 -10 38 -11 79 -3 213 -16 292 -28 80 -13 98 -16
125 -20 17 -2 55 -9 85 -15 30 -6 67 -14 83 -16 15 -3 80 -19 145 -35 64 -17
124 -32 132 -34 73 -16 405 -138 428 -157 6 -6 12 -8 12 -4 0 9 284 -135 367
-185 282 -172 483 -337 703 -578 37 -41 131 -163 182 -236 140 -202 234 -392
325 -655 23 -67 67 -263 79 -346 3 -27 8 -58 11 -69 3 -11 6 -108 8 -215 3
-169 -3 -281 -18 -355 -3 -11 -8 -42 -12 -70 -29 -206 -139 -496 -273 -721
-114 -192 -315 -427 -499 -586 -57 -49 -218 -167 -275 -203 -27 -17 -48 -33
-48 -37 0 -5 -5 -8 -11 -8 -6 0 -44 -20 -83 -43 -67 -41 -262 -139 -366 -184
-62 -28 -244 -97 -248 -95 -1 1 -18 -5 -38 -13 -20 -8 -46 -17 -58 -19 -11 -3
-47 -14 -78 -25 -32 -11 -58 -18 -58 -16 0 3 -17 -2 -37 -9 -21 -8 -81 -24
-133 -36 -52 -12 -104 -24 -115 -27 -11 -2 -29 -5 -40 -7 -11 -2 -40 -6 -65
-10 -51 -8 -75 -12 -140 -21 -25 -3 -56 -8 -70 -10 -14 -2 -50 -6 -80 -10 -30
-3 -66 -8 -80 -10 -14 -3 -56 -7 -95 -10 -38 -3 -86 -8 -105 -10 -46 -6 -169
-16 -250 -20 -36 -2 -65 -4 -65 -5 0 -1 -34 -3 -75 -5 -41 -2 -115 -6 -165
-10 -131 -8 -269 -14 -444 -20 -84 -2 -156 -7 -159 -10 -3 -2 -11 0 -19 6 -7
6 -13 8 -13 3 0 -5 -172 -10 -383 -12 -210 -2 -517 -5 -682 -8 -165 -3 -825
-7 -1468 -9 l-1167 -3 -48 -25 c-27 -14 -60 -42 -77 -66 l-30 -43 0 -1691 c0
-1612 1 -1694 18 -1730 24 -50 86 -93 151 -107 36 -7 261 -10 707 -8 621 3
656 4 689 22 51 28 99 83 106 124 4 20 7 486 7 1036 0 551 4 1015 8 1031 16
55 96 121 164 132 11 2 697 5 1525 7 828 2 1534 6 1570 9 36 3 119 8 185 12
66 3 133 8 150 10 16 2 57 7 90 10 98 11 128 14 175 20 59 7 118 15 155 22 17
3 41 7 55 8 14 2 27 4 30 5 3 1 8 2 13 1 4 -1 28 4 54 9 25 6 67 13 92 16 25
3 50 8 56 12 5 4 19 7 30 8 11 0 36 5 55 9 19 4 44 9 55 11 27 4 60 12 60 14
0 1 11 4 24 6 14 2 52 12 85 20 34 9 68 17 77 19 9 2 34 8 55 15 58 17 147 41
164 45 8 2 33 10 55 18 22 8 65 22 95 31 30 10 62 20 70 23 8 3 17 7 20 8 3 1
18 7 33 13 16 7 32 12 37 12 4 0 75 27 157 61 81 33 162 66 178 72 80 31 435
215 554 287 447 269 767 537 1116 935 101 115 360 484 398 565 4 8 25 47 47
85 39 67 160 310 160 320 0 2 11 28 24 57 12 29 33 80 45 113 13 33 27 69 31
80 29 70 99 319 124 445 28 142 37 203 53 360 14 145 7 538 -11 640 -3 14 -7
45 -10 70 -3 25 -8 56 -11 70 -4 22 -12 65 -21 112 -8 50 -77 295 -103 370
-71 201 -182 438 -288 611 -30 51 -62 104 -70 118 -7 15 -20 32 -28 39 -8 7
-15 16 -15 21 0 5 -6 17 -14 26 -8 10 -41 54 -74 98 -111 152 -216 271 -405
458 -103 103 -192 187 -197 187 -5 0 -20 11 -33 24 -32 32 -246 199 -277 217
-14 8 -27 17 -30 20 -16 19 -304 202 -415 264 -107 60 -276 149 -285 150 -3 0
-41 18 -85 38 -117 56 -130 62 -240 107 -185 77 -581 210 -667 225 -17 3 -35
8 -40 12 -5 3 -37 12 -71 20 -34 8 -69 16 -77 18 -51 13 -139 34 -165 39 -16
3 -52 11 -80 17 -27 6 -58 11 -67 11 -10 -1 -20 4 -23 9 -4 5 -10 7 -15 4 -5
-3 -27 -2 -47 4 -21 5 -56 12 -78 15 -22 3 -49 7 -61 10 -12 2 -45 7 -75 11
-30 3 -65 8 -79 10 -75 11 -119 17 -155 20 -22 2 -58 6 -80 9 -36 4 -110 10
-270 22 -208 14 -646 37 -762 38 -35 1 -63 4 -63 8 0 4 -11 3 -24 -2 -13 -5
-26 -6 -29 -3 -3 3 -77 7 -164 10 -168 5 -1721 12 -1725 8z"/>
</g>
</svg>
